<svg width="31" height="31" viewBox="0 0 31 31" fill="none" xmlns="http://www.w3.org/2000/svg">
<mask id="path-1-inside-1_231_104" fill="white">
<path d="M19.9065 18.8523C19.409 18.0646 19.1519 17.149 19.1667 16.2175C19.1814 15.286 19.4674 14.379 19.9897 13.6075C20.5119 12.836 21.2477 12.2335 22.107 11.8737C22.9664 11.5139 23.912 11.4123 24.8281 11.5816C25.7442 11.7508 26.5911 12.1834 27.2652 12.8265C27.9393 13.4695 28.4113 14.2952 28.6235 15.2023C28.8356 16.1094 28.7788 17.0588 28.4598 17.9341C28.1408 18.8094 27.5736 19.5728 26.8275 20.1307C29.1563 21.4149 30.6666 23.8816 30.6666 26.8333V29.7083C30.6666 29.9625 30.5657 30.2062 30.3859 30.3859C30.2062 30.5657 29.9625 30.6666 29.7083 30.6666C29.4541 30.6666 29.2104 30.5657 29.0306 30.3859C28.8509 30.2062 28.75 29.9625 28.75 29.7083V26.8333C28.75 23.529 26.3043 21.0833 23 21.0833C21.2558 21.0833 20.5121 21.045 19.5404 20.8495C17.1446 20.3626 15.0688 18.9328 12.6692 15.9313C12.5835 15.834 12.5184 15.7203 12.478 15.5971C12.4375 15.474 12.4224 15.3439 12.4337 15.2147C12.445 15.0855 12.4824 14.96 12.5436 14.8457C12.6048 14.7314 12.6885 14.6307 12.7898 14.5497C12.891 14.4687 13.0076 14.4091 13.1326 14.3745C13.2575 14.3399 13.3882 14.331 13.5167 14.3483C13.6452 14.3657 13.7688 14.4089 13.8801 14.4754C13.9914 14.542 14.088 14.6304 14.1641 14.7353C15.8891 16.8896 17.3324 18.0703 18.8293 18.6511C19.1264 18.7507 19.4906 18.8101 19.9065 18.8523ZM23.3277 19.0976C23.4874 19.1168 23.6478 19.1385 23.8088 19.1628L23.9583 19.1666C24.6932 19.165 25.3996 18.882 25.9324 18.3758C26.4651 17.8695 26.7838 17.1785 26.8228 16.4446C26.8619 15.7107 26.6185 14.9897 26.1426 14.4297C25.6666 13.8698 24.9943 13.5133 24.2637 13.4336C23.5331 13.3539 22.7998 13.557 22.2143 14.0012C21.6288 14.4454 21.2356 15.0969 21.1156 15.822C20.9955 16.547 21.1576 17.2905 21.5687 17.8997C21.9798 18.5089 22.6104 18.9376 23.3277 19.0976ZM18.745 22.9425C18.9991 22.9425 19.2429 23.0434 19.4226 23.2232C19.6023 23.4029 19.7033 23.6466 19.7033 23.9008C19.689 24.0517 19.6568 24.2003 19.6075 24.3436C19.2644 25.0719 19.1666 25.827 19.1666 26.839V29.714C19.1666 29.9682 19.0657 30.212 18.886 30.3917C18.7062 30.5714 18.4625 30.6724 18.2083 30.6724C17.9541 30.6724 17.7104 30.5714 17.5307 30.3917C17.3509 30.212 17.25 29.9682 17.25 29.714V26.839C17.25 25.5798 17.388 24.5659 17.8384 23.5884C17.9034 23.3997 18.0258 23.2361 18.1883 23.1203C18.3508 23.0045 18.5454 22.9423 18.745 22.9425ZM11.4195 11.063C11.569 11.2621 11.6352 11.5115 11.6041 11.7585C11.5729 12.0056 11.4468 12.2308 11.2525 12.3865C11.0582 12.5421 10.811 12.6161 10.5631 12.5927C10.3152 12.5692 10.0862 12.4502 9.92449 12.2609L5.96083 7.30632C5.87515 7.20901 5.8101 7.09533 5.76964 6.97215C5.72917 6.84897 5.71412 6.71886 5.72539 6.5897C5.73666 6.46053 5.77403 6.335 5.83523 6.2207C5.89643 6.10639 5.98018 6.0057 6.08143 5.9247C6.18267 5.84371 6.2993 5.7841 6.42425 5.74948C6.5492 5.71487 6.67987 5.70597 6.80836 5.72332C6.93685 5.74068 7.06048 5.78392 7.17177 5.85044C7.28306 5.91696 7.37969 6.00537 7.45582 6.11033L11.4195 11.063ZM1.91666 21.0833H12.4583C12.7125 21.0833 12.9562 21.1843 13.136 21.364C13.3157 21.5437 13.4166 21.7875 13.4166 22.0416C13.4166 22.2958 13.3157 22.5396 13.136 22.7193C12.9562 22.899 12.7125 23 12.4583 23H0.958332C0.704167 23 0.460411 22.899 0.280689 22.7193C0.100967 22.5396 0 22.2958 0 22.0416V0.958332C0 0.704167 0.100967 0.460411 0.280689 0.280689C0.460411 0.100967 0.704167 0 0.958332 0L23.9583 0C24.2125 0 24.4562 0.100967 24.6359 0.280689C24.8157 0.460411 24.9166 0.704167 24.9166 0.958332V6.70832C24.9166 6.96249 24.8157 7.20625 24.6359 7.38597C24.4562 7.56569 24.2125 7.66666 23.9583 7.66666C23.7041 7.66666 23.4604 7.56569 23.2807 7.38597C23.1009 7.20625 23 6.96249 23 6.70832V1.91666H1.91666V21.0833Z"/>
</mask>
<path d="M19.9065 18.8523L19.7131 20.7592L23.6285 21.1562L21.527 17.8288L19.9065 18.8523ZM26.8275 20.1307L25.6796 18.5958L23.301 20.3748L25.902 21.8091L26.8275 20.1307ZM19.5404 20.8495L19.1587 22.7278L19.1624 22.7285L19.5404 20.8495ZM12.6692 15.9313L14.1662 14.7344L14.1378 14.6989L14.1077 14.6647L12.6692 15.9313ZM14.1641 14.7353L12.6127 15.8607L12.6395 15.8977L12.668 15.9333L14.1641 14.7353ZM18.8293 18.6511L18.1361 20.438L18.1775 20.454L18.2197 20.4682L18.8293 18.6511ZM23.3277 19.0976L22.9103 20.9683L23.004 20.9892L23.0994 21.0007L23.3277 19.0976ZM23.8088 19.1628L23.523 21.058L23.6407 21.0758L23.7597 21.0788L23.8088 19.1628ZM23.9583 19.1666L23.9092 21.0827L23.9359 21.0834L23.9626 21.0833L23.9583 19.1666ZM18.745 22.9425L18.7438 24.8591H18.745V22.9425ZM19.7033 23.9008L21.6114 24.0821L21.62 23.9916V23.9008H19.7033ZM19.6075 24.3436L21.3414 25.1603L21.3858 25.0661L21.4197 24.9676L19.6075 24.3436ZM17.8384 23.5884L19.5791 24.3905L19.6192 24.3036L19.6504 24.2132L17.8384 23.5884ZM11.4195 11.063L12.9519 9.91177L12.9343 9.8883L12.9159 9.86537L11.4195 11.063ZM9.92449 12.2609L8.42782 13.4582L8.44699 13.4822L8.46691 13.5055L9.92449 12.2609ZM5.96083 7.30632L7.45749 6.10899L7.42924 6.07368L7.39936 6.03974L5.96083 7.30632ZM7.45582 6.11033L5.90436 7.23574L5.93102 7.27249L5.95939 7.30794L7.45582 6.11033ZM1.91666 21.0833H0V23H1.91666V21.0833ZM0 22.0416H-1.91666H0ZM0 0.958332H-1.91666H0ZM0.958332 0V-1.91666V0ZM23 1.91666H24.9166V0H23V1.91666ZM1.91666 1.91666V0H0V1.91666H1.91666ZM21.527 17.8288C21.2285 17.3562 21.0742 16.8068 21.0831 16.2479L17.2502 16.1871C17.2296 17.4912 17.5895 18.7731 18.286 19.8758L21.527 17.8288ZM21.0831 16.2479C21.092 15.689 21.2636 15.1448 21.5769 14.6819L18.4025 12.5331C17.6713 13.6132 17.2709 14.883 17.2502 16.1871L21.0831 16.2479ZM21.5769 14.6819C21.8902 14.219 22.3317 13.8575 22.8473 13.6416L21.3668 10.1057C20.1637 10.6095 19.1336 11.453 18.4025 12.5331L21.5769 14.6819ZM22.8473 13.6416C23.3629 13.4257 23.9303 13.3648 24.4799 13.4664L25.1762 9.69679C23.8937 9.45988 22.5698 9.602 21.3668 10.1057L22.8473 13.6416ZM24.4799 13.4664C25.0296 13.5679 25.5378 13.8275 25.9422 14.2133L28.5882 11.4396C27.6445 10.5394 26.4588 9.9337 25.1762 9.69679L24.4799 13.4664ZM25.9422 14.2133C26.3467 14.5991 26.6299 15.0945 26.7572 15.6388L30.4898 14.7658C30.1927 13.4958 29.5319 12.3399 28.5882 11.4396L25.9422 14.2133ZM26.7572 15.6388C26.8845 16.1831 26.8503 16.7527 26.659 17.2779L30.2606 18.5903C30.7072 17.3649 30.7868 16.0358 30.4898 14.7658L26.7572 15.6388ZM26.659 17.2779C26.4676 17.8031 26.1272 18.2611 25.6796 18.5958L27.9755 21.6656C29.02 20.8844 29.8141 19.8158 30.2606 18.5903L26.659 17.2779ZM25.902 21.8091C27.6056 22.7486 28.75 24.5641 28.75 26.8333H32.5833C32.5833 23.1992 30.707 20.0812 27.7531 18.4523L25.902 21.8091ZM28.75 26.8333V29.7083H32.5833V26.8333H28.75ZM28.75 29.7083C28.75 29.4541 28.8509 29.2104 29.0307 29.0307L31.7412 31.7412C32.2804 31.2021 32.5833 30.4708 32.5833 29.7083H28.75ZM29.0307 29.0307C29.2104 28.8509 29.4541 28.75 29.7083 28.75V32.5833C30.4708 32.5833 31.2021 32.2804 31.7412 31.7412L29.0307 29.0307ZM29.7083 28.75C29.9625 28.75 30.2062 28.8509 30.3859 29.0307L27.6754 31.7412C28.2145 32.2804 28.9458 32.5833 29.7083 32.5833V28.75ZM30.3859 29.0307C30.5657 29.2104 30.6666 29.4541 30.6666 29.7083H26.8333C26.8333 30.4708 27.1362 31.2021 27.6754 31.7412L30.3859 29.0307ZM30.6666 29.7083V26.8333H26.8333V29.7083H30.6666ZM30.6666 26.8333C30.6666 22.4704 27.3628 19.1666 23 19.1666V23C25.2458 23 26.8333 24.5875 26.8333 26.8333H30.6666ZM23 19.1666C21.2785 19.1666 20.6937 19.1264 19.9184 18.9705L19.1624 22.7285C20.3305 22.9635 21.2332 23 23 23V19.1666ZM19.9221 18.9712C18.1318 18.6074 16.4129 17.5446 14.1662 14.7344L11.1721 17.1282C13.7247 20.321 16.1573 22.1179 19.1587 22.7278L19.9221 18.9712ZM14.1077 14.6647C14.1934 14.762 14.2584 14.8757 14.2989 14.9989L10.657 16.1954C10.7785 16.5649 10.9736 16.906 11.2306 17.1979L14.1077 14.6647ZM14.2989 14.9989C14.3393 15.1221 14.3544 15.2522 14.3431 15.3814L10.5243 15.048C10.4905 15.4355 10.5356 15.8258 10.657 16.1954L14.2989 14.9989ZM14.3431 15.3814C14.3318 15.5105 14.2945 15.6361 14.2333 15.7504L10.8538 13.941C10.6702 14.2839 10.5581 14.6605 10.5243 15.048L14.3431 15.3814ZM14.2333 15.7504C14.1721 15.8647 14.0883 15.9654 13.9871 16.0464L11.5924 13.053C11.2887 13.296 11.0374 13.5981 10.8538 13.941L14.2333 15.7504ZM13.9871 16.0464C13.8858 16.1273 13.7692 16.187 13.6443 16.2216L12.6209 12.5274C12.246 12.6312 11.8961 12.81 11.5924 13.053L13.9871 16.0464ZM13.6443 16.2216C13.5193 16.2562 13.3886 16.2651 13.2601 16.2477L13.7732 12.4489C13.3877 12.3968 12.9957 12.4235 12.6209 12.5274L13.6443 16.2216ZM13.2601 16.2477C13.1317 16.2304 13.008 16.1871 12.8967 16.1206L14.8634 12.8303C14.5296 12.6307 14.1587 12.501 13.7732 12.4489L13.2601 16.2477ZM12.8967 16.1206C12.7854 16.0541 12.6888 15.9657 12.6127 15.8607L15.7156 13.6099C15.4872 13.2951 15.1973 13.0298 14.8634 12.8303L12.8967 16.1206ZM12.668 15.9333C14.4888 18.2073 16.1882 19.6822 18.1361 20.438L19.5226 16.8642C18.4766 16.4584 17.2895 15.572 15.6603 13.5373L12.668 15.9333ZM18.2197 20.4682C18.7211 20.6364 19.2539 20.7126 19.7131 20.7592L20.0998 16.9454C19.7272 16.9076 19.5317 16.865 19.4389 16.8339L18.2197 20.4682ZM23.0994 21.0007C23.2397 21.0175 23.3809 21.0366 23.523 21.058L24.0946 17.2676C23.9147 17.2404 23.7352 17.2161 23.5561 17.1946L23.0994 21.0007ZM23.7597 21.0788L23.9092 21.0827L24.0074 17.2506L23.8579 17.2468L23.7597 21.0788ZM23.9626 21.0833C25.1874 21.0806 26.3647 20.6089 27.2526 19.7652L24.6121 16.9864C24.4345 17.1551 24.199 17.2494 23.9541 17.25L23.9626 21.0833ZM27.2526 19.7652C28.1406 18.9214 28.6716 17.7697 28.7368 16.5466L24.9089 16.3426C24.8959 16.5873 24.7896 16.8176 24.6121 16.9864L27.2526 19.7652ZM28.7368 16.5466C28.802 15.3234 28.3962 14.1218 27.603 13.1885L24.6821 15.671C24.8408 15.8577 24.9219 16.098 24.9089 16.3426L28.7368 16.5466ZM27.603 13.1885C26.8097 12.2552 25.6892 11.6611 24.4716 11.5283L24.0559 15.339C24.2994 15.3655 24.5235 15.4844 24.6821 15.671L27.603 13.1885ZM24.4716 11.5283C23.2539 11.3954 22.0316 11.7339 21.0558 12.4742L23.3727 15.5282C23.5679 15.3801 23.8123 15.3124 24.0559 15.339L24.4716 11.5283ZM21.0558 12.4742C20.08 13.2146 19.4247 14.3005 19.2246 15.5089L23.0065 16.1351C23.0465 15.8934 23.1775 15.6762 23.3727 15.5282L21.0558 12.4742ZM19.2246 15.5089C19.0245 16.7173 19.2948 17.9564 19.9799 18.9718L23.1575 16.8277C23.0205 16.6246 22.9664 16.3768 23.0065 16.1351L19.2246 15.5089ZM19.9799 18.9718C20.6662 19.9888 21.7168 20.702 22.9103 20.9683L23.7451 17.227C23.504 17.1732 23.2934 17.029 23.1575 16.8277L19.9799 18.9718ZM18.745 24.8591C18.4908 24.8591 18.2471 24.7582 18.0673 24.5784L20.7779 21.8679C20.2387 21.3287 19.5075 21.0258 18.745 21.0258V24.8591ZM18.0673 24.5784C17.8876 24.3987 17.7866 24.155 17.7866 23.9008H21.62C21.62 23.1383 21.3171 22.407 20.7779 21.8679L18.0673 24.5784ZM17.7952 23.7195L21.4197 24.9676C21.5184 24.681 21.5827 24.3838 21.6114 24.0821L17.7952 23.7195ZM17.8736 23.5268C17.3556 24.6264 17.25 25.7093 17.25 26.839H21.0833C21.0833 25.9448 21.1732 25.5173 21.3414 25.1603L17.8736 23.5268ZM17.25 26.839V29.714H21.0833V26.839H17.25ZM17.25 29.714C17.25 29.4599 17.3509 29.2161 17.5307 29.0364L20.2412 31.747C20.7804 31.2078 21.0833 30.4765 21.0833 29.714H17.25ZM17.5307 29.0364C17.7104 28.8567 17.9541 28.7557 18.2083 28.7557V32.589C18.9708 32.589 19.7021 32.2861 20.2412 31.747L17.5307 29.0364ZM18.2083 28.7557C18.4625 28.7557 18.7062 28.8567 18.886 29.0364L16.1754 31.747C16.7145 32.2861 17.4458 32.589 18.2083 32.589V28.7557ZM18.886 29.0364C19.0657 29.2161 19.1666 29.4599 19.1666 29.714H15.3333C15.3333 30.4765 15.6362 31.2078 16.1754 31.747L18.886 29.0364ZM19.1666 29.714V26.839H15.3333V29.714H19.1666ZM19.1666 26.839C19.1666 25.7201 19.2907 25.0165 19.5791 24.3905L16.0976 22.7863C15.4852 24.1153 15.3333 25.4395 15.3333 26.839H19.1666ZM19.6504 24.2132C19.5853 24.4019 19.463 24.5655 19.3005 24.6813L17.0761 21.5593C16.5886 21.9067 16.2216 22.3976 16.0264 22.9636L19.6504 24.2132ZM19.3005 24.6813C19.1379 24.7971 18.9433 24.8593 18.7438 24.8591L18.7462 21.0258C18.1475 21.0254 17.5637 21.2119 17.0761 21.5593L19.3005 24.6813ZM9.88706 12.2142C9.73751 12.0151 9.67132 11.7657 9.70248 11.5186L13.5057 11.9984C13.5992 11.2574 13.4006 10.509 12.9519 9.91177L9.88706 12.2142ZM9.70248 11.5186C9.73364 11.2716 9.85972 11.0464 10.054 10.8907L12.451 13.8822C13.0339 13.4151 13.4122 12.7395 13.5057 11.9984L9.70248 11.5186ZM10.054 10.8907C10.2483 10.735 10.4956 10.6611 10.7435 10.6845L10.3827 14.5008C11.1263 14.5711 11.8681 14.3493 12.451 13.8822L10.054 10.8907ZM10.7435 10.6845C10.9914 10.7079 11.2204 10.8269 11.3821 11.0163L8.46691 13.5055C8.95196 14.0736 9.63904 14.4305 10.3827 14.5008L10.7435 10.6845ZM11.4212 11.0636L7.45749 6.10899L4.46416 8.50365L8.42782 13.4582L11.4212 11.0636ZM7.39936 6.03974C7.48504 6.13706 7.55008 6.25074 7.59055 6.37392L3.94872 7.57038C4.07013 7.93991 4.26525 8.28097 4.52229 8.5729L7.39936 6.03974ZM7.59055 6.37392C7.63102 6.4971 7.64607 6.62721 7.63479 6.75637L3.81599 6.42303C3.78216 6.81052 3.82732 7.20084 3.94872 7.57038L7.59055 6.37392ZM7.63479 6.75637C7.62352 6.88553 7.58615 7.01106 7.52495 7.12537L4.1455 5.31603C3.96191 5.65894 3.84981 6.03554 3.81599 6.42303L7.63479 6.75637ZM7.52495 7.12537C7.46376 7.23967 7.38 7.34037 7.27876 7.42137L4.8841 4.42804C4.58036 4.67102 4.3291 4.97312 4.1455 5.31603L7.52495 7.12537ZM7.27876 7.42137C7.17751 7.50236 7.06089 7.56197 6.93594 7.59658L5.91255 3.90239C5.53771 4.00623 5.18783 4.18505 4.8841 4.42804L7.27876 7.42137ZM6.93594 7.59658C6.81099 7.6312 6.68031 7.6401 6.55183 7.62274L7.06489 3.8239C6.67943 3.77185 6.2874 3.79854 5.91255 3.90239L6.93594 7.59658ZM6.55183 7.62274C6.42334 7.60539 6.29971 7.56215 6.18842 7.49562L8.15512 4.20526C7.82125 4.0057 7.45035 3.87597 7.06489 3.8239L6.55183 7.62274ZM6.18842 7.49562C6.07713 7.4291 5.98049 7.34069 5.90436 7.23574L9.00729 4.98491C8.7789 4.67006 8.48899 4.40482 8.15512 4.20526L6.18842 7.49562ZM5.95939 7.30794L9.92305 12.2606L12.9159 9.86537L8.95226 4.91271L5.95939 7.30794ZM1.91666 23H12.4583V19.1666H1.91666V23ZM12.4583 23C12.2042 23 11.9604 22.899 11.7807 22.7193L14.4912 20.0087C13.9521 19.4695 13.2208 19.1666 12.4583 19.1666V23ZM11.7807 22.7193C11.601 22.5396 11.5 22.2958 11.5 22.0416H15.3333C15.3333 21.2791 15.0304 20.5479 14.4912 20.0087L11.7807 22.7193ZM11.5 22.0416C11.5 21.7875 11.601 21.5437 11.7807 21.364L14.4912 24.0746C15.0304 23.5354 15.3333 22.8041 15.3333 22.0416H11.5ZM11.7807 21.364C11.9604 21.1843 12.2042 21.0833 12.4583 21.0833V24.9166C13.2208 24.9166 13.9521 24.6137 14.4912 24.0746L11.7807 21.364ZM12.4583 21.0833H0.958332V24.9166H12.4583V21.0833ZM0.958332 21.0833C1.21249 21.0833 1.45625 21.1843 1.63598 21.364L-1.0746 24.0746C-0.535428 24.6137 0.195839 24.9166 0.958332 24.9166V21.0833ZM1.63598 21.364C1.8157 21.5437 1.91666 21.7875 1.91666 22.0416H-1.91666C-1.91666 22.8041 -1.61376 23.5354 -1.0746 24.0746L1.63598 21.364ZM1.91666 22.0416V0.958332H-1.91666V22.0416H1.91666ZM1.91666 0.958332C1.91666 1.2125 1.8157 1.45625 1.63598 1.63598L-1.0746 -1.0746C-1.61376 -0.535431 -1.91666 0.195836 -1.91666 0.958332H1.91666ZM1.63598 1.63598C1.45625 1.8157 1.2125 1.91666 0.958332 1.91666V-1.91666C0.195836 -1.91666 -0.535431 -1.61376 -1.0746 -1.0746L1.63598 1.63598ZM0.958332 1.91666H23.9583V-1.91666H0.958332V1.91666ZM23.9583 1.91666C23.7041 1.91666 23.4604 1.8157 23.2807 1.63598L25.9912 -1.0746C25.4521 -1.61376 24.7208 -1.91666 23.9583 -1.91666V1.91666ZM23.2807 1.63598C23.1009 1.45625 23 1.21249 23 0.958332H26.8333C26.8333 0.195839 26.5304 -0.535428 25.9912 -1.0746L23.2807 1.63598ZM23 0.958332V6.70832H26.8333V0.958332H23ZM23 6.70832C23 6.45416 23.1009 6.21041 23.2807 6.03068L25.9912 8.74125C26.5304 8.20208 26.8333 7.47082 26.8333 6.70832H23ZM23.2807 6.03068C23.4604 5.85096 23.7041 5.74999 23.9583 5.74999V9.58332C24.7208 9.58332 25.4521 9.28042 25.9912 8.74125L23.2807 6.03068ZM23.9583 5.74999C24.2125 5.74999 24.4562 5.85096 24.6359 6.03068L21.9254 8.74125C22.4645 9.28042 23.1958 9.58332 23.9583 9.58332V5.74999ZM24.6359 6.03068C24.8157 6.21041 24.9166 6.45416 24.9166 6.70832H21.0833C21.0833 7.47082 21.3862 8.20208 21.9254 8.74125L24.6359 6.03068ZM24.9166 6.70832V1.91666H21.0833V6.70832H24.9166ZM23 0H1.91666V3.83333H23V0ZM0 1.91666V21.0833H3.83333V1.91666H0Z" fill="#FFEBB2" mask="url(#path-1-inside-1_231_104)"/>
</svg>
